<svg width="30" height="36" viewBox="0 0 30 36" fill="none" xmlns="http://www.w3.org/2000/svg">
<g clip-path="url(#clip0_31_128)">
<path d="M29.0455 12.2724C28.8317 12.4344 25.0577 14.5116 25.0577 19.1304C25.0577 24.4728 29.8599 26.3628 30.0037 26.4096C29.9816 26.5248 29.2408 28.998 27.4717 31.518C25.8943 33.7356 24.2469 35.9496 21.7408 35.9496C19.2346 35.9496 18.5897 34.5276 15.6966 34.5276C12.8771 34.5276 11.8747 35.9964 9.58231 35.9964C7.28993 35.9964 5.69042 33.9444 3.85135 31.4244C1.72113 28.4652 0 23.868 0 19.5048C0 12.5064 4.65848 8.7948 9.24324 8.7948C11.6794 8.7948 13.7101 10.3572 15.2396 10.3572C16.6953 10.3572 18.9656 8.7012 21.7371 8.7012C22.7875 8.7012 26.5614 8.7948 29.0455 12.2724ZM20.4214 5.7384C21.5676 4.41 22.3784 2.5668 22.3784 0.7236C22.3784 0.468 22.3563 0.2088 22.3084 0C20.4435 0.0684 18.2248 1.2132 16.887 2.7288C15.8366 3.8952 14.8563 5.7384 14.8563 7.6068C14.8563 7.8876 14.9042 8.1684 14.9263 8.2584C15.0442 8.28 15.2359 8.3052 15.4275 8.3052C17.1007 8.3052 19.2052 7.2108 20.4214 5.7384Z" fill="black"/>
</g>
<defs>
<clipPath id="clip0_31_128">
<rect width="30" height="36" fill="white"/>
</clipPath>
</defs>
</svg>
