<svg width="36" height="35" viewBox="0 0 36 35" fill="none" xmlns="http://www.w3.org/2000/svg">
<g clip-path="url(#clip0_31_146)">
<path d="M18.3671 14.3182V21.0955H28.2521C27.8181 23.2751 26.5155 25.1206 24.5619 26.3615L30.5229 30.7684C33.996 27.7139 35.9998 23.2275 35.9998 17.898C35.9998 16.6571 35.8829 15.4638 35.6658 14.3184L18.3671 14.3182Z" fill="#4285F4"/>
<path d="M8.07351 20.831L6.72907 21.8115L1.97015 25.3433C4.99243 31.0547 11.1868 35.0002 18.3668 35.0002C23.3258 35.0002 27.4835 33.4411 30.5226 30.7684L24.5615 26.3615C22.9251 27.4115 20.8379 28.048 18.3668 28.048C13.5912 28.048 9.53383 24.9775 8.08102 20.8411L8.07351 20.831Z" fill="#34A853"/>
<path d="M1.97018 9.65688C0.717925 12.0113 0 14.6682 0 17.5C0 20.3318 0.717925 22.9887 1.97018 25.3431C1.97018 25.3589 8.08164 20.8249 8.08164 20.8249C7.71429 19.7749 7.49716 18.6613 7.49716 17.4998C7.49716 16.3383 7.71429 15.2247 8.08164 14.1747L1.97018 9.65688Z" fill="#FBBC05"/>
<path d="M18.3671 6.96822C21.0722 6.96822 23.4766 7.85911 25.3969 9.57732L30.6566 4.56599C27.4673 1.73421 23.3264 0 18.3671 0C11.1872 0 4.99243 3.92956 1.97015 9.65688L8.08142 14.1751C9.53403 10.0387 13.5916 6.96822 18.3671 6.96822Z" fill="#EA4335"/>
</g>
<defs>
<clipPath id="clip0_31_146">
<rect width="36" height="35" fill="white"/>
</clipPath>
</defs>
</svg>
